<svg width="1422" height="171" viewBox="0 0 1422 171" fill="none" xmlns="http://www.w3.org/2000/svg">
<path fill-rule="evenodd" clip-rule="evenodd" d="M53.0026 86.8675L150.638 30.4975C140.307 22.3542 127.266 17.4952 113.09 17.4952C79.5634 17.4952 52.3846 44.674 52.3846 78.2007C52.3846 81.1418 52.5938 84.034 52.998 86.8633L0 117.462L22.2543 156.007L75.0653 125.517C63.3653 116.102 55.2297 102.438 53.0026 86.8675ZM173.095 68.9195C170.713 53.3875 162.445 39.7947 150.639 30.4903L203.45 0L225.704 38.5455L173.095 68.9195ZM113.09 138.906C98.6952 138.906 85.4705 133.896 75.0648 125.524L173.092 68.9279C173.555 71.9512 173.796 75.0479 173.796 78.2007C173.796 111.727 146.617 138.906 113.09 138.906Z" fill="white"/>
<path d="M338.97 19.0662H395.34V29.6356H338.97C336.062 29.6356 334.104 30.1948 333.098 31.3133C332.091 32.4317 331.588 34.5009 331.588 37.5207V63.5248C331.588 67.2157 332.203 69.6203 333.433 70.7388C334.776 71.8572 336.621 72.4165 338.97 72.4165H373.698C383.316 72.4165 389.859 75.2685 393.327 80.9726C394.781 83.4332 395.619 86.0616 395.843 88.8577C396.067 91.6539 396.179 94.3382 396.179 96.9106V116.539C396.179 122.467 394.165 127.277 390.139 130.968C386.113 134.658 380.912 136.504 374.537 136.504H321.857V125.935H374.537C378.004 125.935 380.688 125.096 382.589 123.418C384.603 121.74 385.609 119.447 385.609 116.539V96.9106C385.609 94.3382 385.553 92.2131 385.441 90.5354C385.33 88.7459 384.882 87.2919 384.099 86.1735C383.316 85.055 382.086 84.2721 380.408 83.8247C378.843 83.2655 376.606 82.9859 373.698 82.9859H338.97C333.266 82.9859 328.848 81.3082 325.716 77.9528C322.584 74.5975 321.019 69.7881 321.019 63.5248V37.5207C321.019 33.4943 321.634 30.3067 322.864 27.9579C324.094 25.4973 325.604 23.5959 327.394 22.2538C329.295 20.9116 331.252 20.0728 333.266 19.7373C335.391 19.2899 337.292 19.0662 338.97 19.0662ZM419.97 52.6198V59.8339C422.878 58.0443 425.954 56.4226 429.198 54.9686C432.553 53.4027 435.517 52.6198 438.089 52.6198H465.1C466.778 52.6198 468.623 52.8435 470.636 53.2909C472.649 53.6264 474.551 54.4653 476.34 55.8074C478.242 57.0377 479.808 58.8832 481.038 61.3438C482.268 63.6925 482.883 66.8242 482.883 70.7388V116.204C482.883 120.23 482.268 123.474 481.038 125.935C479.808 128.283 478.242 130.129 476.34 131.471C474.551 132.701 472.649 133.54 470.636 133.987C468.623 134.323 466.778 134.491 465.1 134.491H438.089C435.517 134.491 432.553 133.764 429.198 132.31C425.954 130.744 422.878 129.066 419.97 127.277V170.058H409.569V52.6198H419.97ZM438.089 63.0214C436.635 63.0214 434.119 63.9721 430.54 65.8735C426.961 67.663 423.437 69.7322 419.97 72.0809V115.03C421.648 116.148 423.382 117.266 425.171 118.385C427.072 119.503 428.862 120.51 430.54 121.405C432.217 122.188 433.727 122.859 435.069 123.418C436.412 123.865 437.418 124.089 438.089 124.089H465.1C468.008 124.089 469.965 123.53 470.972 122.411C471.978 121.293 472.482 119.224 472.482 116.204V70.7388C472.482 67.8308 471.978 65.8176 470.972 64.6991C469.965 63.5807 468.008 63.0214 465.1 63.0214H438.089ZM516.281 86.0057H560.74V85.8379C560.74 80.1338 560.18 75.7718 559.062 72.752C558.055 69.7322 556.769 67.4953 555.203 66.0413C553.749 64.5873 552.239 63.7484 550.673 63.5248C549.108 63.3011 547.877 63.1892 546.983 63.1892H500.343V52.6198H546.983C549.219 52.6198 551.736 53.0113 554.532 53.7942C557.44 54.4653 560.124 55.9752 562.585 58.3239C565.157 60.6727 567.283 64.0281 568.96 68.39C570.638 72.752 571.477 78.568 571.477 85.8379L571.309 136.504L560.74 136.336V129.122C557.72 130.912 554.476 132.589 551.009 134.155C547.654 135.721 544.69 136.504 542.117 136.504H514.436C512.758 136.504 510.856 136.336 508.731 136.001C506.718 135.553 504.761 134.658 502.86 133.316C501.07 131.974 499.504 130.073 498.162 127.612C496.932 125.152 496.317 121.908 496.317 117.882V103.789C496.317 102.447 496.484 100.769 496.82 98.7561C497.267 96.7429 498.162 94.7856 499.504 92.8842C500.958 90.9828 502.971 89.3611 505.544 88.0189C508.228 86.6768 511.807 86.0057 516.281 86.0057ZM506.886 103.789V117.882C506.886 121.013 507.389 123.138 508.396 124.257C509.514 125.375 511.528 125.935 514.436 125.935H542.117C543.683 125.935 546.256 124.984 549.835 123.082C553.526 121.069 557.161 118.888 560.74 116.539V96.5751H516.281C514.156 96.5751 512.478 96.7988 511.248 97.2462C510.018 97.5817 509.067 98.085 508.396 98.7561C507.725 99.4271 507.277 100.21 507.054 101.105C506.942 101.888 506.886 102.783 506.886 103.789ZM584.703 115.197V73.4231C584.703 69.3966 585.542 66.0413 587.219 63.357C588.897 60.6727 590.966 58.5476 593.427 56.9818C595.999 55.416 598.684 54.2975 601.48 53.6264C604.388 52.9554 606.96 52.6198 609.197 52.6198H655.837V63.1892H609.197C608.302 63.1892 607.072 63.3011 605.506 63.5248C603.94 63.6366 602.374 64.0281 600.809 64.6991C599.355 65.3702 598.068 66.3768 596.95 67.719C595.831 69.0611 595.272 70.9625 595.272 73.4231V92.8842V115.197C595.272 117.434 595.831 119.28 596.95 120.734C598.068 122.076 599.355 123.138 600.809 123.921C602.374 124.704 603.94 125.263 605.506 125.599C607.072 125.823 608.302 125.935 609.197 125.935H655.837V136.504H609.197C606.96 136.504 604.388 136.112 601.48 135.33C598.684 134.547 595.999 133.316 593.427 131.639C590.966 129.849 588.897 127.612 587.219 124.928C585.542 122.244 584.703 119 584.703 115.197ZM669.321 103.286C669.321 99.1475 669.321 95.0652 669.321 91.0387C669.433 86.9004 669.489 82.7622 669.489 78.6239C669.489 61.2878 679.219 52.6198 698.68 52.6198H726.194C727.872 52.6198 729.773 52.8435 731.898 53.2909C734.024 53.6264 735.981 54.4653 737.77 55.8074C739.672 57.1496 741.238 59.0509 742.468 61.5115C743.81 63.9721 744.481 67.2157 744.481 71.2421V85.3346C744.481 86.6768 744.257 88.3544 743.81 90.3677C743.474 92.3809 742.58 94.3382 741.126 96.2395C739.784 98.1409 737.77 99.7627 735.086 101.105C732.514 102.447 728.99 103.118 724.517 103.118L679.89 103.286C679.89 108.99 680.394 113.352 681.4 116.372C682.519 119.392 683.805 121.628 685.259 123.082C686.825 124.536 688.391 125.375 689.956 125.599C691.522 125.823 692.808 125.935 693.815 125.935H744.313V136.504H693.815C691.578 136.504 689.006 136.112 686.098 135.33C683.302 134.547 680.617 132.981 678.045 130.632C675.584 128.283 673.515 124.928 671.837 120.566C670.16 116.204 669.321 110.444 669.321 103.286ZM724.517 92.5486C726.642 92.5486 728.319 92.3809 729.55 92.0453C730.78 91.598 731.675 91.0387 732.234 90.3677C732.905 89.6966 733.297 88.9696 733.408 88.1867C733.632 87.2919 733.744 86.3412 733.744 85.3346V71.2421C733.744 68.1104 733.185 65.9854 732.066 64.8669C731.06 63.7484 729.102 63.1892 726.194 63.1892H698.68C696.22 63.1892 693.871 63.357 691.634 63.6925C689.397 63.9162 687.384 64.5314 685.594 65.538C683.917 66.5446 682.575 68.1104 681.568 70.2355C680.561 72.2487 680.058 75.0448 680.058 78.6239V92.5486H724.517ZM757.871 43.8959C757.871 39.8694 758.598 36.3463 760.052 33.3265C761.506 30.1948 763.407 27.6224 765.756 25.6092C768.105 23.4841 770.733 21.8623 773.641 20.7439C776.549 19.6254 779.401 19.0662 782.197 19.0662H828.334V29.6356H782.197C780.743 29.6356 779.178 29.9711 777.5 30.6422C775.934 31.2014 774.48 32.0962 773.138 33.3265C771.796 34.4449 770.677 35.8989 769.783 37.6885C768.888 39.478 768.44 41.5471 768.44 43.8959V69.0611V86.509V112.345C768.44 115.253 768.832 117.602 769.615 119.392C770.51 121.181 771.628 122.579 772.97 123.586C774.312 124.481 775.766 125.096 777.332 125.431C779.01 125.767 780.632 125.935 782.197 125.935H828.334V136.504H782.197C779.401 136.504 776.549 136.112 773.641 135.33C770.733 134.435 768.105 133.037 765.756 131.135C763.407 129.234 761.506 126.773 760.052 123.754C758.598 120.622 757.871 116.819 757.871 112.345C757.871 109.102 757.871 105.914 757.871 102.783C757.871 99.6508 757.871 96.9106 757.871 94.5619C757.871 92.1013 757.871 90.144 757.871 88.69C757.983 87.1241 758.039 86.3412 758.039 86.3412V69.0611C758.039 69.0611 757.983 68.39 757.871 67.0479C757.871 65.5939 757.871 63.6925 757.871 61.3438C757.871 58.995 757.871 56.3107 757.871 53.2909C757.871 50.2711 757.871 47.1394 757.871 43.8959ZM841.834 117.882V71.2421C841.834 67.2157 842.449 63.9721 843.679 61.5115C845.021 59.0509 846.587 57.1496 848.377 55.8074C850.278 54.4653 852.235 53.6264 854.249 53.2909C856.374 52.8435 858.275 52.6198 859.953 52.6198H898.707C900.385 52.6198 902.286 52.8435 904.411 53.2909C906.536 53.6264 908.494 54.4653 910.283 55.8074C912.185 57.1496 913.75 59.0509 914.981 61.5115C916.323 63.9721 916.994 67.2157 916.994 71.2421V117.882C916.994 121.908 916.323 125.152 914.981 127.612C913.75 130.073 912.185 131.974 910.283 133.316C908.494 134.658 906.536 135.553 904.411 136.001C902.286 136.336 900.385 136.504 898.707 136.504H859.953C858.275 136.504 856.374 136.336 854.249 136.001C852.235 135.553 850.278 134.658 848.377 133.316C846.587 131.974 845.021 130.073 843.679 127.612C842.449 125.152 841.834 121.908 841.834 117.882ZM852.403 71.2421V117.882C852.403 121.013 852.907 123.138 853.913 124.257C855.032 125.375 857.045 125.935 859.953 125.935H898.707C901.615 125.935 903.573 125.375 904.579 124.257C905.698 123.138 906.257 121.013 906.257 117.882V71.2421C906.257 68.1104 905.698 65.9854 904.579 64.8669C903.573 63.7484 901.615 63.1892 898.707 63.1892H859.953C857.045 63.1892 855.032 63.7484 853.913 64.8669C852.907 65.9854 852.403 68.1104 852.403 71.2421ZM930.384 52.6198H940.953V60.0016C943.973 58.2121 947.161 56.5344 950.516 54.9686C953.983 53.4027 957.003 52.6198 959.576 52.6198H967.796C970.257 52.6198 972.997 53.1231 976.017 54.1297C979.149 55.1363 981.665 57.2614 983.566 60.5049C986.586 58.6036 989.886 56.814 993.465 55.1363C997.044 53.4587 1000.18 52.6198 1002.86 52.6198H1011.08C1012.76 52.6198 1014.66 52.8435 1016.78 53.2909C1018.91 53.7383 1020.87 54.633 1022.66 55.9752C1024.56 57.2055 1026.12 59.0509 1027.35 61.5115C1028.58 63.9721 1029.2 67.2157 1029.2 71.2421V136.504H1018.63V71.2421C1018.63 68.2223 1018.07 66.1531 1016.95 65.0347C1015.95 63.9162 1013.99 63.357 1011.08 63.357H1002.86C1001.41 63.357 999.057 64.1399 995.814 65.7057C992.57 67.2716 989.326 69.1729 986.083 71.4099V136.504H975.346V71.2421C975.346 68.2223 974.787 66.1531 973.668 65.0347C972.662 63.9162 970.704 63.357 967.796 63.357H959.576C958.01 63.357 955.381 64.3077 951.69 66.209C948.111 68.1104 944.532 70.2355 940.953 72.5842V136.504H930.384V52.6198ZM1053.09 52.6198V59.8339C1056 58.0443 1059.08 56.4226 1062.32 54.9686C1065.67 53.4027 1068.64 52.6198 1071.21 52.6198H1098.22C1099.9 52.6198 1101.74 52.8435 1103.76 53.2909C1105.77 53.6264 1107.67 54.4653 1109.46 55.8074C1111.36 57.0377 1112.93 58.8832 1114.16 61.3438C1115.39 63.6925 1116.01 66.8242 1116.01 70.7388V116.204C1116.01 120.23 1115.39 123.474 1114.16 125.935C1112.93 128.283 1111.36 130.129 1109.46 131.471C1107.67 132.701 1105.77 133.54 1103.76 133.987C1101.74 134.323 1099.9 134.491 1098.22 134.491H1071.21C1068.64 134.491 1065.67 133.764 1062.32 132.31C1059.08 130.744 1056 129.066 1053.09 127.277V170.058H1042.69V52.6198H1053.09ZM1071.21 63.0214C1069.76 63.0214 1067.24 63.9721 1063.66 65.8735C1060.08 67.663 1056.56 69.7322 1053.09 72.0809V115.03C1054.77 116.148 1056.5 117.266 1058.29 118.385C1060.19 119.503 1061.98 120.51 1063.66 121.405C1065.34 122.188 1066.85 122.859 1068.19 123.418C1069.53 123.865 1070.54 124.089 1071.21 124.089H1098.22C1101.13 124.089 1103.09 123.53 1104.09 122.411C1105.1 121.293 1105.6 119.224 1105.6 116.204V70.7388C1105.6 67.8308 1105.1 65.8176 1104.09 64.6991C1103.09 63.5807 1101.13 63.0214 1098.22 63.0214H1071.21ZM1129.44 52.6198H1140.01V117.882C1140.01 120.901 1140.51 122.971 1141.52 124.089C1142.64 125.208 1144.65 125.767 1147.56 125.767H1175.24C1175.91 125.767 1176.92 125.543 1178.26 125.096C1179.71 124.536 1181.28 123.809 1182.96 122.915C1184.63 122.02 1186.42 121.013 1188.32 119.895C1190.23 118.776 1192.07 117.658 1193.86 116.539V52.6198H1204.43V136.504H1193.86V129.122C1190.84 130.912 1187.6 132.589 1184.13 134.155C1180.78 135.609 1177.81 136.336 1175.24 136.336H1147.56C1145.88 136.336 1143.98 136.168 1141.85 135.833C1139.84 135.385 1137.88 134.491 1135.98 133.149C1134.19 131.806 1132.63 129.961 1131.28 127.612C1130.05 125.152 1129.44 121.908 1129.44 117.882V52.6198ZM1242.32 52.6198C1239.86 50.4948 1238.01 48.2019 1236.78 45.7413C1235.55 43.2807 1234.66 40.932 1234.1 38.6951C1233.54 36.1226 1233.26 33.5502 1233.26 30.9777H1243.66C1243.66 33.1028 1243.88 35.2279 1244.33 37.3529C1244.78 39.0306 1245.45 40.8201 1246.35 42.7215C1247.24 44.6229 1248.64 46.3006 1250.54 47.7545C1251.77 48.7612 1253.22 49.6 1254.9 50.2711C1256.69 50.8303 1258.48 51.2777 1260.27 51.6132C1262.06 51.9487 1263.79 52.2284 1265.47 52.4521C1267.15 52.5639 1268.66 52.6198 1270 52.6198H1273.69V63.1892H1243.83C1243.83 65.538 1243.77 68.5019 1243.66 72.0809C1243.66 75.5481 1243.66 79.239 1243.66 83.1536C1243.66 86.9564 1243.66 90.7032 1243.66 94.3941C1243.66 98.085 1243.66 101.161 1243.66 103.621C1243.66 109.214 1244.16 113.52 1245.17 116.539C1246.29 119.559 1247.58 121.796 1249.03 123.25C1250.6 124.592 1252.16 125.375 1253.73 125.599C1255.29 125.823 1256.52 125.935 1257.42 125.935H1273.69V136.504H1257.42C1255.18 136.504 1252.66 136.168 1249.87 135.497C1247.07 134.714 1244.44 133.149 1241.98 130.8C1239.52 128.451 1237.45 125.152 1235.78 120.901C1234.1 116.539 1233.26 110.779 1233.26 103.621V63.1892H1217.82V52.6198H1242.32ZM1287.04 103.286C1287.04 99.1475 1287.04 95.0652 1287.04 91.0387C1287.15 86.9004 1287.21 82.7622 1287.21 78.6239C1287.21 61.2878 1296.94 52.6198 1316.4 52.6198H1343.92C1345.59 52.6198 1347.49 52.8435 1349.62 53.2909C1351.74 53.6264 1353.7 54.4653 1355.49 55.8074C1357.39 57.1496 1358.96 59.0509 1360.19 61.5115C1361.53 63.9721 1362.2 67.2157 1362.2 71.2421V85.3346C1362.2 86.6768 1361.98 88.3544 1361.53 90.3677C1361.2 92.3809 1360.3 94.3382 1358.85 96.2395C1357.5 98.1409 1355.49 99.7627 1352.81 101.105C1350.23 102.447 1346.71 103.118 1342.24 103.118L1297.61 103.286C1297.61 108.99 1298.11 113.352 1299.12 116.372C1300.24 119.392 1301.53 121.628 1302.98 123.082C1304.55 124.536 1306.11 125.375 1307.68 125.599C1309.24 125.823 1310.53 125.935 1311.54 125.935H1362.03V136.504H1311.54C1309.3 136.504 1306.73 136.112 1303.82 135.33C1301.02 134.547 1298.34 132.981 1295.77 130.632C1293.31 128.283 1291.24 124.928 1289.56 120.566C1287.88 116.204 1287.04 110.444 1287.04 103.286ZM1342.24 92.5486C1344.36 92.5486 1346.04 92.3809 1347.27 92.0453C1348.5 91.598 1349.4 91.0387 1349.96 90.3677C1350.63 89.6966 1351.02 88.9696 1351.13 88.1867C1351.35 87.2919 1351.46 86.3412 1351.46 85.3346V71.2421C1351.46 68.1104 1350.91 65.9854 1349.79 64.8669C1348.78 63.7484 1346.82 63.1892 1343.92 63.1892H1316.4C1313.94 63.1892 1311.59 63.357 1309.36 63.6925C1307.12 63.9162 1305.11 64.5314 1303.32 65.538C1301.64 66.5446 1300.3 68.1104 1299.29 70.2355C1298.28 72.2487 1297.78 75.0448 1297.78 78.6239V92.5486H1342.24ZM1375.59 136.504V52.6198H1386.16V58.6595C1388.96 57.0936 1391.81 55.6956 1394.72 54.4653C1397.74 53.235 1400.37 52.6198 1402.6 52.6198H1416.7V63.1892H1402.6C1401.26 63.1892 1398.97 63.9721 1395.72 65.538C1392.59 67.1038 1389.41 68.9493 1386.16 71.0743V136.504H1375.59Z" fill="white"/>
</svg>
